<svg width="400" height="400" xmlns="http://www.w3.org/2000/svg" version="1.1">
 <desc>Created with Highcharts 4.2.7</desc>
 <defs>
  <clipPath id="highcharts-10">
   <rect id="svg_1" height="373" width="578" y="1" x="1"/>
  </clipPath>
 </defs>
 <g>
  <title>Layer 1</title>
  <g stroke="null" id="svg_4" class="highcharts-series-group">
   <g stroke="null" id="svg_5" transform="translate(10 10) scale(1 1)" class="highcharts-series highcharts-series-0">
    <path stroke="#FFFFFF" id="svg_6" stroke-linejoin="round" d="m189.74444,-9.71493a199.50001,199.50001 0 0 1 199.13221,212.25929l-199.09157,-12.75929a0,0 0 0 0 0,0l-0.04063,-199.50001z" fill="#50B432"/>
    <path stroke="#FFFFFF" id="svg_7" stroke-linejoin="round" d="m388.86378,202.74345a199.50001,199.50001 0 0 1 -159.87515,182.65179l-39.20356,-195.61016a0,0 0 0 0 0,0l199.07871,12.95837z" fill="#ED561B"/>
    <path stroke="#FFFFFF" id="svg_8" stroke-linejoin="round" d="m228.79301,385.43435a199.50001,199.50001 0 0 1 -127.07537,-16.63982l88.06743,-179.00945a0,0 0 0 0 0,0l39.00794,195.64927z" fill="#DDDF00"/>
    <path stroke="#FFFFFF" id="svg_9" stroke-linejoin="round" d="m101.53868,368.70637a199.50001,199.50001 0 0 1 -61.66086,-47.28517l149.90726,-131.63612a0,0 0 0 0 0,0l-88.24639,178.92129z" fill="#24CBE5"/>
    <path stroke="#FFFFFF" id="svg_10" stroke-linejoin="round" d="m39.74624,321.27122a199.50001,199.50001 0 0 1 149.76173,-330.98595l0.2771,199.49981a0,0 0 0 0 0,0l-150.03883,131.48614z" fill="#6467e5"/>
   </g>
   <g stroke="null" id="svg_11" transform="translate(10 10) scale(1 1)" class="highcharts-markers highcharts-series-0"/>
  </g>
  <g id="svg_33" class="highcharts-legend">
   <g id="svg_34">
    <g id="svg_35"/>
   </g>
  </g>
  <g id="svg_36" display="none" class="highcharts-tooltip">
   <path id="svg_37" stroke-width="5" stroke-opacity="0.05" stroke="black" d="m4.5,1.5l10,0c3,0 3,0 3,3l0,10c0,3 0,3 -3,3l-10,0c-3,0 -3,0 -3,-3l0,-10c0,-3 0,-3 3,-3" fill="none"/>
   <path id="svg_38" stroke-width="3" stroke-opacity="0.1" stroke="black" d="m4.5,1.5l10,0c3,0 3,0 3,3l0,10c0,3 0,3 -3,3l-10,0c-3,0 -3,0 -3,-3l0,-10c0,-3 0,-3 3,-3" fill="none"/>
   <path id="svg_39" stroke-opacity="0.15" stroke="black" d="m4.5,1.5l10,0c3,0 3,0 3,3l0,10c0,3 0,3 -3,3l-10,0c-3,0 -3,0 -3,-3l0,-10c0,-3 0,-3 3,-3" fill="none"/>
   <path id="svg_40" d="m3.5,0.5l10,0c3,0 3,0 3,3l0,10c0,3 0,3 -3,3l-10,0c-3,0 -3,0 -3,-3l0,-10c0,-3 0,-3 3,-3" fill-opacity="0.85" fill="rgb(249, 249, 249)"/>
   <text id="svg_41" fill="#000000" font-size="12px" y="20" x="8"/>
  </g>
  <text id="svg_42" fill="#909090" font-size="9px" y="395" text-anchor="end" x="590">meta-chart.com</text>
 </g>
</svg>